<svg height="512" viewBox="0 0 60 40" width="512" xmlns="http://www.w3.org/2000/svg"><g id="Page-1" fill="none" fill-rule="evenodd"><g id="014---Open-Book" fill-rule="nonzero" transform="translate(0 -1)"><path id="Shape" d="m54.17 32h-23.16c.4260248-.7039166.9075537-1.3727068 1.44-2 2.87-3.4 8.64-7.4 19.2-5.15z" fill="#a4c2f7"/><path id="Shape" d="m28.99 32h-23.16l2.52-7.15c10.56-2.25 16.33 1.75 19.2 5.15.5324463.6272932 1.0139752 1.2960834 1.44 2z" fill="#a4c2f7"/><path id="Shape" d="m57 36h-20l-1-4h18.17l-2.52-7.15c1.4312971.3043304 2.843682.6916511 4.23 1.16.1408246.0504769.2914402.0675924.44.05l2.56 7.27c.2174541.6116045.1245654 1.2907028-.249142 1.8214468s-.9817476.847114-1.630858.8485532z" fill="#a4c2f7"/><path id="Shape" d="m58.88 33.33-2.56-7.27c-.1485598.0175924-.2991754.0004769-.44-.05-1.386318-.4683489-2.7987029-.8556696-4.23-1.16l.31.88c.308.1.6.174.92.28.1408246.0504769.2914402.0675924.44.05l2.56 7.27c.2174541.6116045.1245654 1.2907028-.249142 1.8214468s-.9817476.847114-1.630858.8485532h3c.6491104-.0014392 1.2571506-.3178092 1.630858-.8485532s.4665961-1.2098423.249142-1.8214468z" fill="#7facfa"/><path id="Shape" d="m24 32-1 4h-20c-.6491104-.0014392-1.25715061-.3178092-1.63085799-.8485532-.37370737-.530744-.46659612-1.2098423-.24914201-1.8214468l2.56-7.27c.14855977.0175924.29917538.0004769.44-.05 1.38631799-.4683489 2.79870293-.8556696 4.23-1.16l-2.52 7.15z" fill="#a4c2f7"/><path id="Shape" d="m56.32 26.06c-.1485598.0175924-.2991754.0004769-.44-.05-1.386318-.4683489-2.7987029-.8556696-4.23-1.16-10.56-2.25-16.33 1.75-19.2 5.15-.5324463.6272932-1.0139752 1.2960834-1.44 2-.4009627.6322027-.7392344 1.3020478-1.01 2v-25s3.88-11 19.29-5.42c.2833915.10334731.5066527.32660847.61.61l7.24 20.55c.1020812.284948.0684841.6009103-.0912358.8580202-.1597198.25711-.4280841.427232-.7287642.4619798z" fill="#e8edfc"/><path id="Shape" d="m57.14 24.74-7.24-20.55c-.1033473-.28339153-.3266085-.50665269-.61-.61-3.0056675-1.19797093-6.2398093-1.71371221-9.469-1.51 2.213057.21846298 4.3879226.72612213 6.469 1.51.2833915.10334731.5066527.32660847.61.61l7.24 20.55c.0878398.2377599.0777699.5006561-.028.731.579.165 1.162.336 1.768.539.1408246.0504769.2914402.0675924.44.05.3006801-.0347478.5690444-.2048698.7287642-.4619798.1597199-.2571099.193317-.5730722.0912358-.8580202z" fill="#cad9fc"/><path id="Shape" d="m30 9v25c-.2707656-.6979522-.6090373-1.3677973-1.01-2-.4260248-.7039166-.9075537-1.3727068-1.44-2-2.87-3.4-8.64-7.4-19.2-5.15-1.43129707.3043304-2.84368201.6916511-4.23 1.16-.14082462.0504769-.29144023.0675924-.44.05-.30068013-.0347478-.56904441-.2048698-.72876424-.4619798-.15971982-.2571099-.19331699-.5730722-.09123576-.8580202l7.24-20.55c.1033473-.28339153.3266085-.50665269.61-.61 15.41-5.58 19.29 5.42 19.29 5.42z" fill="#e8edfc"/><path id="Shape" d="m37 36c0 2.21-3.13 4-7 4s-7-1.79-7-4l1-4h4.99c.4009627.6322027.7392344 1.3020478 1.01 2 .2707656-.6979522.6090373-1.3677973 1.01-2h4.99z" fill="#7facfa"/><path id="Shape" d="m3 36h3c-.6491104-.0014392-1.25715061-.3178092-1.63085799-.8485532-.37370737-.530744-.46659612-1.2098423-.24914201-1.8214468l2.56-7.27c-.30068013-.0347478-.56904441-.2048698-.72876424-.4619798-.15971982-.2571099-.19331699-.5730722-.09123576-.8580202l7.24-20.55c.1033473-.28339153.3266085-.50665269.61-.61 2.0810774-.78387787 4.255943-1.29153702 6.469-1.51-3.2291907-.20371221-6.4633325.31202907-9.469 1.51-.2833915.10334731-.5066527.32660847-.61.61l-7.24 20.55c-.10208123.284948-.06848406.6009103.09123576.8580202.15971983.25711.42808411.427232.72876424.4619798l-2.56 7.27c-.21745411.6116045-.12456536 1.2907028.24914201 1.8214468.37370738.530744.98174759.847114 1.63085799.8485532z" fill="#fff"/><path id="Rectangle-path" d="m4.771 6.968h8v2h-8z" fill="#fff" transform="matrix(.333 -.943 .943 .333 -1.66 13.59)"/><g fill="#428dff"><path id="Shape" d="m.558 35.739c.5615963.7911813 1.4717638 1.2611736 2.442 1.261h19.153c.722 2.309 3.91 4 7.847 4s7.125-1.691 7.847-4h19.153c.9729459-.0017595 1.8846188-.4752456 2.445631-1.270162.5610123-.7949164.7016864-1.8125348.377369-2.729838l-2.279-6.47c.026-.024.059-.038.084-.064.5366779-.5411718.7144812-1.3426483.457-2.06l-7.244-20.544c-.2026018-.56817505-.6475061-1.01674414-1.214-1.224-5.715-2.069-10.589-2.183-14.487-.34-2.105527.99803474-3.887009 2.56948201-5.14 4.534-1.2532783-1.96377959-3.0347329-3.53450955-5.14-4.532-3.9-1.842-8.771-1.729-14.487.34-.56610914.20785566-1.01079531.65620481-1.214 1.224-.18142554.5232898.0957102 1.09457446.619 1.276s1.0945745-.0957102 1.276-.619c6.011-2.177 10.863-2.031 14.418.435 1.5362989 1.06693326 2.7553575 2.52959619 3.528 4.233v21.036c-.211-.285-.435-.576-.687-.874-2.725-3.225-8.765-7.826-20.018-5.5-.015 0-.028.007-.043.009-1.50642948.3161558-2.99298923.7205188-4.452 1.211l4.584-13c.1395975-.3415682.07975315-.7322551-.15568577-1.0163763s-.60820832-.4155006-.96976378-.3417851c-.36155547.0737155-.65313616.3405456-.75855045.6941614l-4.584 13c-.2574812.7173517-.07967792 1.5188282.457 2.06.025.026.058.04.084.064l-2.28 6.469c-.32405094.920827-.18206337 1.9415723.381 2.739zm29.442 3.261c-3.465 0-5.894-1.517-5.991-2.913l.772-3.087h3.636c.2434948.4274873.4573316.8711987.64 1.328.1411019.3998258.5190066.6672073.943.6672073s.8018981-.2673815.943-.6672073c.1813489-.457042.3945389-.9007981.638-1.328h3.638l.772 3.087c-.097 1.396-2.526 2.913-5.991 2.913zm20.9-13.279 1.857 5.279h-19.828c.095-.12.182-.237.285-.358 2.902-3.433 8.246-6.775 17.686-4.921zm6.915 8.862c-.1862934.2648764-.491195.4208813-.815.417h-19.219l-.5-2h16.889c.3245853.0000238.6289906-.1574927.8164466-.4224755.1874559-.2649828.2346403-.6044643.1265534-.9105245l-1.908-5.413c.763.205 1.546.437 2.357.708h.014l2.361 6.7c.1105141.3091979.0635003.6528464-.126.921zm-21.82-30.477c3.4-1.608 7.755-1.468 12.961.421l7.244 20.537c-14.175-4.73-21.44.656-24.509 4.287-.251.3-.475.589-.686.874v-21.038c1.0068004-2.23275784 2.7757998-4.03401757 4.99-5.081zm-9.209 26.535c.1.122.19.239.285.359h-19.828l1.857-5.279c9.441-1.853 14.785 1.489 17.686 4.92zm-24.723 3.022 2.361-6.7h.014c.811-.271 1.594-.5 2.357-.708l-1.908 5.412c-.1080869.3060602-.06090251.6455417.12655344.9105245s.49186126.4224993.81644656.4224755h16.889l-.5 2h-19.219c-.3223962.0025601-.6255116-.1532958-.811-.417-.19046924-.2673925-.23756172-.6112424-.126-.92z"/><path id="Shape" d="m34.157 22.112c-.4418278.3327516-.5302516.9606722-.1975 1.4025s.9606722.5302516 1.4025.1975c3.938-2.982 9.194-3.712 15.607-2.19.5306332.1120854 1.0538932-.219236 1.1794863-.7468354.125593-.5275994-.1922645-1.0591457-.7164863-1.1981646-8.747-2.077-14.222.23-17.275 2.535z"/><path id="Shape" d="m8.568 19.577c-.35391274.0768017-.6386451.3389485-.74436795.6853232-.10572286.3463746-.01591267.7228419.23478828.9841879.25070096.2613461.62311038.3667249.97357967.2754889 6.4-1.526 11.653-.79 15.607 2.187.2858125.2143594.6642734.2599564.9928203.1196152.3285469-.1403411.5572656-.4452994.6-.8.0427344-.3547005-.1070078-.7052558-.3928203-.9196152-3.059-2.302-8.539-4.609-17.271-2.532z"/><path id="Shape" d="m33.866 17.494c-.2971251.2114279-.4556001.5678347-.4135541.9300738.042046.3622392.2779459.6728699.6156006.8106172.3376548.1377474.7235221.0807686 1.0069535-.148691 3.678-2.792 8.588-3.483 14.593-2.053.3476194.082707.7129567-.0263214.9583927-.2860151.2454361-.2596938.3336834-.6305993.2315-.973-.1021833-.3424008-.3792733-.6042779-.7268927-.6869849-8.237-1.961-13.392.226-16.265 2.407z"/><path id="Shape" d="m9.127 16.292c.06146408.2580945.22297337.481185.44897386.6201613.2260005.1389762.49796564.1824455.75602614.1208387 6-1.429 10.915-.739 14.593 2.053.2834314.2294596.6692987.2864384 1.0069535.148691.3376547-.1377473.5735546-.448378.6156006-.8106172.042046-.3622391-.116429-.7186459-.4135541-.9300738-2.872-2.181-8.028-4.37-16.265-2.407-.2582792.0612426-.48161252.2226599-.62079214.4486861s-.1827848.4981142-.12120786.7563139z"/><path id="Shape" d="m33.577 12.863c-.2849193.2156098-.4331692.5668441-.3889053.9213963.0442639.3545523.2743168.6585576.6035.7975.3291832.1389425.707486.0917135.9924053-.1238963 3.429-2.6 8-3.241 13.574-1.916.5306332.1120854 1.0538932-.219236 1.1794863-.7468354.125593-.5275994-.1922645-1.0591457-.7164863-1.1981646-7.704-1.831-12.543.221-15.244 2.266z"/><path id="Shape" d="m10.438 11.8c.1280674.5350402.6642686.8661444 1.2.741 5.578-1.327 10.145-.681 13.574 1.916.4404471.3333038 1.0676961.246447 1.401-.194.3333038-.4404471.2464471-1.0676961-.194-1.401-2.7-2.046-7.539-4.1-15.244-2.266-.5353592.1298282-.864896.6681759-.737 1.204z"/><path id="Shape" d="m33.881 10.03c.2163702 0 .4269038-.07017787.6-.2 3.161-2.405 7.388-3 12.563-1.764.5319195.1154305 1.0584715-.21576251 1.1847756-.74520546.1263041-.52944296-.1940315-1.0626698-.7207756-1.19979454-7.2-1.718-11.72.2-14.238 2.117-.3453968.25902538-.4855619.71046925-.347605 1.11956707.1379569.40909781.522883.68346933.954605.68043293z"/><path id="Shape" d="m12.952 8.062c5.177-1.232 9.4-.64 12.563 1.764.4396187.3344084 1.0670916.2491187 1.4015-.1905.3344084-.43961866.2491187-1.06709158-.1905-1.4015-2.518-1.914-7.032-3.836-14.238-2.117-.5267441.13712474-.8470797.67035158-.7207756 1.19979454.1263041.52944295.6528561.86063596 1.1847756.74520546z"/><path id="Shape" d="m8.792 8.967c-.55228474.00303756-1.00246242-.44221526-1.00549999-.9945-.00303756-.55228474.44221525-1.00246243.99449999-1.0055h.011c.55228475 0 1 .44771525 1 1s-.44771525 1-1 1z"/></g></g></g></svg>