<svg height="512" viewBox="0 0 60 60" width="512" xmlns="http://www.w3.org/2000/svg"><g id="Page-1" fill="none" fill-rule="evenodd"><g id="021---Coffee-Book" fill-rule="nonzero" transform="translate(0 -1)"><path id="Shape" d="m59 58c-.0081672 1.1011688-.8988312 1.9918328-2 2h-45.69c-5.32501409.06779-9.80437605-3.9758363-10.28-9.28-.19991146-2.7693387.76056309-5.4971265 2.65146594-7.5302738 1.89090285-2.0331472 4.5419894-3.1886027 7.31853406-3.1897262h46c1.1032019.0032948 1.9967052.8967981 2 2-.0081672 1.1011688-.8988312 1.9918328-2 2h-46c-3.2494364.0056802-5.9065153 2.5919037-6 5.84.02641344 3.4262669 2.82371036 6.1832828 6.25 6.16h45.75c1.1032019.0032948 1.9967052.8967981 2 2z" fill="#a4c2f7"/><path id="Shape" d="m56 42c-.0081672 1.1011688-.8988312 1.9918328-2 2h3c1.1011688-.0081672 1.9918328-.8988312 2-2-.0032948-1.1032019-.8967981-1.9967052-2-2h-3c1.1032019.0032948 1.9967052.8967981 2 2z" fill="#7facfa"/><path id="Shape" d="m57 56h-3c1.1032019.0032948 1.9967052.8967981 2 2-.0081672 1.1011688-.8988312 1.9918328-2 2h3c1.1011688-.0081672 1.9918328-.8988312 2-2-.0032948-1.1032019-.8967981-1.9967052-2-2z" fill="#7facfa"/><path id="Shape" d="m54 50c-.0235975 2.0628844.3887326 4.1074967 1.21 6h-43.96c-3.42628964.0232828-6.22358656-2.7337331-6.25-6.16.0934847-3.2480963 2.7505636-5.8343198 6-5.84h44.21c-.8212674 1.8925033-1.2335975 3.9371156-1.21 6z" fill="#e8edfc"/><path id="Shape" d="m55.21 44h-3c-1.6133371 3.8373215-1.6133371 8.1626785 0 12h3c-1.6133371-3.8373215-1.6133371-8.1626785 0-12z" fill="#cad9fc"/><path id="Shape" d="m16 14h28c1.1045695 0 2 .8954305 2 2v4c0 7.1797017-5.8202983 13-13 13h-6c-7.1797017 0-13-5.8202983-13-13v-4c0-1.1045695.8954305-2 2-2z" fill="#e8edfc"/><path id="Shape" d="m44 14h-3c1.1045695 0 2 .8954305 2 2v4c0 7.1797017-5.8202983 13-13 13h3c7.1797017 0 13-5.8202983 13-13v-4c0-1.1045695-.8954305-2-2-2z" fill="#cad9fc"/><path id="Shape" d="m30 40h9c4.0684177.116451 7.8699476-2.0184494 9.888-5.553.1553431-.3108588.1381628-.6800764-.0453763-.9751664-.183539-.2950901-.5071168-.4737357-.8546237-.4718336h-35.98c-.3475069-.0019021-.6710847.1767435-.8546237.4718336-.1835391.29509-.2007194.6643076-.0453763.9751664 2.0187344 3.5358422 5.822165 5.6709463 9.892 5.553z" fill="#e8edfc"/><path id="Shape" d="m47.992 33h-3c.3475069-.0019021.6710847.1767435.8546237.4718336.1835391.29509.2007194.6643076.0453763.9751664-2.0187344 3.5358422-5.822165 5.6709463-9.892 5.553h3c4.0684177.116451 7.8699476-2.0184494 9.888-5.553.1550183-.3102209.138242-.6786097-.0443309-.9734568s-.5048732-.4740518-.8516691-.4735432z" fill="#cad9fc"/><path id="Shape" d="m11.31 60h3c-5.32501409.06779-9.80437605-3.9758363-10.28-9.28-.19991146-2.7693387.76056309-5.4971265 2.65146594-7.5302738 1.89090285-2.0331472 4.54198936-3.1886027 7.31853406-3.1897262h-3c-2.77654466.0011235-5.42763121 1.156579-7.31853406 3.1897262-1.89090285 2.0331473-2.8513774 4.7609351-2.65146594 7.5302738.47562395 5.3041637 4.95498591 9.34779 10.28 9.28z" fill="#fff"/><path id="Shape" d="m19 14h-3c-1.1045695 0-2 .8954305-2 2v4c0 7.1797017 5.8202983 13 13 13h3c-7.1797017 0-13-5.8202983-13-13v-4c0-1.1045695.8954305-2 2-2z" fill="#fff"/><path id="Shape" d="m11.112 34.447c2.0180524 3.5345506 5.8195823 5.669451 9.888 5.553h3c-4.0684177.116451-7.8699476-2.0184494-9.888-5.553-.1553431-.3108588-.1381628-.6800764.0453763-.9751664.183539-.2950901.5071168-.4737357.8546237-.4718336h-3c-.3475069-.0019021-.6710847.1767435-.8546237.4718336-.1835391.29509-.2007194.6643076-.0453763.9751664z" fill="#fff"/><path id="Shape" d="m2.792 42.68 1.492 1.332c-1.61841899 1.8161774-2.43386571 4.2095009-2.261 6.636l-1.995.139c-.20950603-2.9644811.78720923-5.8879148 2.764-8.107z" fill="#fff"/><g fill="#428dff"><path id="Shape" d="m1.548 47.761c-.55228473.0027614-1.00223852-.4427153-1.00499994-.995-.00276143-.5522847.44271521-1.0022385.99499994-1.005h.01c.55228475 0 1 .4477153 1 1s-.44771525 1-1 1z"/><path id="Shape" d="m55.9 45h1.1c1.6568542 0 3-1.3431458 3-3s-1.3431458-3-3-3h-11.048c1.5992071-1.0183878 2.9141608-2.4255466 3.822-4.09.323235-.6128342.2989026-1.3507896-.064-1.941-.36134-.6037498-1.0143873-.9720867-1.718-.969h-7.818c2.0399773-1.2232778 3.7367692-2.9434642 4.932-5h4.894c2.7614237 0 5-2.2385763 5-5s-2.2385763-5-5-5h-3v-1c0-1.6568542-1.3431458-3-3-3h-28c-1.6568542 0-3 1.3431458-3 3v4c.0060206 4.9222556 2.598186 9.4792412 6.826 12h-7.818c-.7036127-.0030867-1.35666.3652502-1.718.969-.36262116.5902117-.38732314 1.3278509-.065 1.941.9085452 1.6642648 2.2237629 3.0713379 3.823 4.09h-3.048c-3.13488656.003353-6.11997271 1.3416957-8.208 3.68-.19162554.1999907-.28840193.4724879-.26584321.7485454.02255871.2760575.1622913.5292277.38384321.6954546.4211722.3128931 1.00906135.264972 1.374-.112 1.70816849-1.9138001 4.15075873-3.009256 6.716-3.012h46c.5522847 0 1 .4477153 1 1s-.4477153 1-1 1h-46c-3.79446656.003478-6.89714114 3.0259262-7 6.819-.03882166 1.8496814.67714291 3.6354407 1.983 4.946 1.38547888 1.4215424 3.28398914 2.2268509 5.269 2.235h45.748c.5522847 0 1 .4477153 1 1s-.4477153 1-1 1h-45.689c-4.80315755.0712277-8.85102388-3.5683223-9.289-8.352-.02169709-.3589176-.23441941-.6785536-.55713009-.8371424-.32271068-.1585887-.70571927-.1317109-1.0031181.0703943-.29739882.2021052-.46339491.548318-.43475181.9067481.51584844 5.8291998 5.43239982 10.2786701 11.284 10.212h45.689c1.6568542 0 3-1.3431458 3-3s-1.3431458-3-3-3h-1.1c-1.1945687-3.2263088-1.1945687-6.7736912 0-10zm-5.9-26c1.6568542 0 3 1.3431458 3 3s-1.3431458 3-3 3h-3.939c.6180651-1.5946695.9364005-3.289746.939-5v-1zm-35 1v-4c0-.5522847.4477153-1 1-1h28c.5522847 0 1 .4477153 1 1v4c-.0071648 6.624447-5.375553 11.9928352-12 12h-6c-6.624447-.0071648-11.9928352-5.375553-12-12zm6 19c-3.6892956.1160046-7.1438451-1.804897-8.992-5l14.861-.007c.044 0 .087.007.131.007h6c.063 0 .124-.009.187-.009l14.813-.007c-1.8460039 3.2031956-5.3047329 5.1308605-9 5.016zm-9.748 16c-1.44523607-.0078377-2.82685176-.5954297-3.835-1.631-.92793064-.9254881-1.43946743-2.1886265-1.417-3.499.07570557-2.7082448 2.2907008-4.8656501 5-4.87h42.757c-1.0093364 3.2569263-1.0093364 6.7430737 0 10z"/><path id="Shape" d="m11 49h24c.5522847 0 1-.4477153 1-1s-.4477153-1-1-1h-24c-.5522847 0-1 .4477153-1 1s.4477153 1 1 1z"/><path id="Shape" d="m49 47h-10c-.5522847 0-1 .4477153-1 1s.4477153 1 1 1h10c.5522847 0 1-.4477153 1-1s-.4477153-1-1-1z"/><path id="Shape" d="m49 51h-24c-.5522847 0-1 .4477153-1 1s.4477153 1 1 1h24c.5522847 0 1-.4477153 1-1s-.4477153-1-1-1z"/><path id="Shape" d="m21 51h-10c-.5522847 0-1 .4477153-1 1s.4477153 1 1 1h10c.5522847 0 1-.4477153 1-1s-.4477153-1-1-1z"/><path id="Shape" d="m27 28c-4.4162219-.0049599-7.9950401-3.5837781-8-8 0-.5522847-.4477153-1-1-1s-1 .4477153-1 1c.0060624 5.5203344 4.4796656 9.9939376 10 10 .5522847 0 1-.4477153 1-1s-.4477153-1-1-1z"/><path id="Shape" d="m22.537 8.845c.8642583-.47197086 1.419061-1.36124791 1.463-2.345-.0458752-.98952831-.6066906-1.88273495-1.478-2.354-.322-.205-.522-.446-.522-.646s.2-.444.522-.649c.3036758-.18917213.4833616-.52598347.4713716-.88356046-.01199-.35757698-.2138342-.68159516-.5295-.85000001-.3156657-.16840485-.6971958-.15561167-1.0008716.03356047-.8654425.47269947-1.4204347 1.36379763-1.463 2.349.0458752.98952831.6066906 1.88273495 1.478 2.354.327.205.522.447.522.649s-.2.444-.537.658c-.8624863.47087556-1.4170056 1.35742429-1.463 2.339.043939.9837521.5987417 1.8730291 1.463 2.345.469442.2924348 1.0870652.148942 1.3795-.3205s.148942-1.0870652-.3205-1.3795c-.322-.198-.522-.44-.522-.645s.2-.441.537-.655z"/><path id="Shape" d="m38.537 8.845c.8642583-.47197086 1.419061-1.36124791 1.463-2.345-.0458752-.98952831-.6066906-1.88273495-1.478-2.354-.322-.205-.522-.446-.522-.646s.2-.444.522-.649c.469442-.29243478.6129348-.91005796.3205-1.3795s-.910058-.61293477-1.3795-.3205c-.8654425.47269947-1.4204347 1.36379763-1.463 2.349.0458752.98952831.6066906 1.88273495 1.478 2.354.327.205.522.447.522.649s-.2.444-.537.658c-.8624863.47087556-1.4170056 1.35742429-1.463 2.339.043939.9837521.5987417 1.8730291 1.463 2.345.3036758.1891721.6852059.2019653 1.0008716.0335605.3156658-.1684049.51751-.492423.5295-.85s-.1676958-.6943884-.4713716-.8835605c-.322-.198-.522-.44-.522-.645s.2-.441.537-.655z"/><path id="Shape" d="m30.537 8.845c.8642583-.47197086 1.419061-1.36124791 1.463-2.345-.0458752-.98952831-.6066906-1.88273495-1.478-2.354-.322-.205-.522-.446-.522-.646s.2-.444.522-.649c.3036758-.18917213.4833616-.52598347.4713716-.88356046-.01199-.35757698-.2138342-.68159516-.5295-.85000001-.3156657-.16840485-.6971958-.15561167-1.0008716.03356047-.8654425.47269947-1.4204347 1.36379763-1.463 2.349.0458752.98952831.6066906 1.88273495 1.478 2.354.327.205.522.447.522.649s-.2.444-.537.658c-.8624863.47087556-1.4170056 1.35742429-1.463 2.339.043939.9837521.5987417 1.8730291 1.463 2.345.3036758.1891721.6852059.2019653 1.0008716.0335605.3156658-.1684049.51751-.4924231.5295-.85.01199-.357577-.1676958-.6943884-.4713716-.8835605-.322-.198-.522-.44-.522-.645s.2-.441.537-.655z"/></g></g></g></svg>