<?xml version="1.0" encoding="iso-8859-1"?>
<!-- Generator: Adobe Illustrator 19.0.0, SVG Export Plug-In . SVG Version: 6.00 Build 0)  -->
<svg version="1.1" id="Capa_1" xmlns="http://www.w3.org/2000/svg" xmlns:xlink="http://www.w3.org/1999/xlink" x="0px" y="0px"
	 viewBox="0 0 511.968 511.968" style="enable-background:new 0 0 511.968 511.968;" xml:space="preserve">
<polygon style="fill:#FFFFFF;" points="256,348.728 163.998,292.724 163.998,316.73 185.699,384.914 255.992,356.728 
	326.293,384.914 347.994,316.73 347.994,292.724 "/>
<g>
	<path style="fill:#94C1FF;" d="M382.695,75.995c20.482,45.599,13.28,95.994,13.28,95.994s-3.117-45.759-31.756-63.996
		L382.695,75.995z"/>
	<path style="fill:#94C1FF;" d="M382.695,75.995l-18.476,31.998c-72.081-45.837-131.515,77.757-243.023,44.798
		c-4.484-1.359-9.047-2.961-13.68-4.8c0,0,8.477-143.991,148.468-143.991C330.135,4,365.821,38.318,382.695,75.995z"/>
</g>
<path style="fill:#5C9EFF;" d="M382.695,75.995C365.821,38.318,330.135,4,255.984,4c-2.609,0-5.078,0.148-7.601,0.246
	c68.409,2.527,102.095,35.541,118.312,71.749c7.147,15.909,10.874,32.361,12.765,47.095c14.546,20.925,16.515,48.899,16.515,48.899
	S403.177,121.594,382.695,75.995z"/>
<path style="fill:#D7E9FF;" d="M123.14,153.35c0,0,8.633-143.937,141.242-149.104C261.609,4.144,258.874,4,255.984,4
	C115.993,4,107.516,147.991,107.516,147.991C112.149,149.83,123.14,153.35,123.14,153.35z"/>
<g style="opacity:0.2;">
	<path d="M255.984,355.978c27.295,0,63.316-22.249,92.01-56.169v-7.085L256,348.728l-92.002-56.004v7.21
		C192.683,333.823,228.705,355.978,255.984,355.978z"/>
</g>
<path style="fill:#D7E9FF;" d="M395.975,171.989l-0.883,15.999c-9.116,85.198-88.955,159.99-139.108,159.99
	c-53.278,0-139.991-84.393-139.991-175.989v-20.874c117.242,36.623,176.146-88.959,248.227-43.123
	C392.858,126.23,395.975,171.989,395.975,171.989z"/>
<path style="fill:#94C1FF;" d="M364.219,107.993c-14.179-9.015-27.842-11.335-41.544-9.628c8.405,1.137,16.881,4.117,25.545,9.628
	c28.639,18.237,31.756,63.996,31.756,63.996l-0.883,15.999c-8.663,80.964-81.151,152.396-131.382,159.303
	c2.827,0.422,5.601,0.688,8.272,0.688c50.153,0,129.992-74.792,139.108-159.99l0.883-15.999
	C395.975,171.989,392.858,126.23,364.219,107.993z"/>
<path style="fill:#FFFFFF;" d="M131.992,171.989v-16.882c-5.227-1.035-10.53-2.281-15.999-3.992v20.874
	c0,91.597,86.713,175.989,139.991,175.989c2.492,0,5.102-0.328,7.727-0.688C210.206,339.44,131.992,258.992,131.992,171.989z"/>
<path style="fill:#94C1FF;" d="M499.968,427.973c0,31.998,0,79.995,0,79.995H303.981l11.437-15.999l40.561-55.997l-8-23.998
	l39.998-55.996l-17.163-17.155c18.077,7.921,69.479,28.834,81.159,33.153C483.97,383.898,499.968,395.975,499.968,427.973z"/>
<polygon style="fill:#5D9CEC;" points="303.981,507.968 286.818,507.968 326.543,383.336 347.978,315.98 387.976,355.978 
	347.978,411.974 355.978,435.972 "/>
<polygon style="fill:#D7E9FF;" points="303.981,507.968 286.818,507.968 326.543,383.336 347.978,315.98 387.976,355.978 
	347.978,411.974 355.978,435.972 "/>
<path style="fill:#94C1FF;" d="M11.999,427.973c0,31.998,0,79.995,0,79.995h195.988l-11.437-15.999l-40.561-55.997l8-23.998
	l-39.998-55.996l17.163-17.155c-18.077,7.921-69.479,28.834-81.159,33.153C27.998,383.898,11.999,395.975,11.999,427.973z"/>
<polygon style="fill:#5D9CEC;" points="207.987,507.968 225.15,507.968 185.425,383.336 163.99,315.98 123.992,355.978 
	163.99,411.974 155.99,435.972 "/>
<polygon style="fill:#D7E9FF;" points="207.987,507.968 225.15,507.968 185.425,383.336 163.99,315.98 123.992,355.978 
	163.99,411.974 155.99,435.972 "/>
<path style="fill:#5C9EFF;" d="M155.99,435.972l8-23.998l-39.998-55.996l17.163-17.155c-3.546,1.546-8.39,3.608-13.944,5.937
	l-11.218,11.219l39.997,55.996l-7.999,23.998l51.997,71.996h7.999L196.55,491.97L155.99,435.972z"/>
<path style="fill:#D7E9FF;" d="M115.993,355.978l11.218-11.219c-22.779,9.547-57.824,23.749-67.215,27.217
	c-31.998,11.922-47.997,23.999-47.997,55.997s0,79.995,0,79.995h15.999c0-16.827,0-43.63,0-63.996
	c0-31.998,15.999-44.075,47.997-55.996c7.094-2.625,28.819-11.359,48.856-19.601L115.993,355.978z"/>
<g>
	<path style="fill:#5C9EFF;" d="M355.978,435.972l-8-23.998l39.998-55.996l-17.163-17.155c3.546,1.546,8.39,3.608,13.944,5.937
		l11.218,11.219l-39.997,55.996l7.999,23.998l-51.997,71.996h-7.999l11.437-15.999L355.978,435.972z"/>
	<path style="fill:#5C9EFF;" d="M395.975,355.978l-11.218-11.219c22.779,9.547,57.824,23.749,67.215,27.217
		c31.998,11.922,47.996,23.999,47.996,55.997s0,79.995,0,79.995H483.97c0-16.827,0-43.63,0-63.996c0-31.998-16-44.075-47.998-55.996
		c-7.093-2.625-28.818-11.359-48.855-19.601L395.975,355.978z"/>
</g>
<polygon style="fill:#FFFFFF;" points="255.984,355.978 326.293,384.117 291.982,491.969 286.818,507.968 225.15,507.968 
	219.986,491.969 185.691,384.164 "/>
<g>
	<polygon style="fill:#94C1FF;" points="275.983,395.975 235.985,395.975 222.908,369.212 255.984,355.978 289.068,369.212 	"/>
	<polygon style="fill:#94C1FF;" points="283.982,506.718 227.986,506.718 227.986,435.972 243.985,395.975 267.983,395.975 
		283.982,435.972 	"/>
</g>
<g>
	<path style="fill:#116FFF;" d="M499.968,511.968H11.999c-2.21,0-3.999-1.789-3.999-4v-79.995c0-34.373,17.78-47.513,50.599-59.746
		c12.413-4.555,27.779-10.632,41.122-16.257l6.694-2.945c2.023-0.875,4.375,0.062,5.258,2.094c0.867,2.031-0.07,4.383-2.102,5.25
		l-6.718,2.968c-13.476,5.672-28.975,11.804-41.475,16.39c-30.74,11.453-45.38,22.202-45.38,52.247v75.995h479.971v-75.995
		c0-30.045-14.64-40.794-45.396-52.247c-9.609-3.562-28.67-10.812-48.2-19.365c-2.023-0.883-2.945-3.242-2.062-5.273
		c0.891-2.016,3.288-2.93,5.265-2.055c19.351,8.477,38.24,15.663,47.787,19.194c32.825,12.233,50.605,25.373,50.605,59.746v79.995
		C503.968,510.179,502.179,511.968,499.968,511.968z"/>
	<path style="fill:#116FFF;" d="M255.984,351.978c-54.247,0-143.991-84.12-143.991-179.989c0-2.211,1.789-4,4-4s4,1.789,4,4
		c0,88.687,84.838,171.989,135.991,171.989c45.669,0,126.055-71.589,135.132-156.416c0.234-2.203,2.367-3.75,4.398-3.55
		c2.203,0.234,3.789,2.207,3.555,4.402C390.054,272.655,310.816,351.978,255.984,351.978z"/>
	<path style="fill:#116FFF;" d="M395.975,175.989c-0.047,0-0.094-0.004-0.148-0.004c-2.039-0.074-3.703-1.68-3.844-3.723
		c-0.031-0.438-3.343-43.978-29.912-60.895c-10.265-6.527-20.64-9.698-31.709-9.698c-21.796,0-44.278,12.534-68.073,25.803
		c-29.413,16.397-62.754,34.982-102.986,34.982c-12.952,0-26.154-1.961-39.239-5.828c-4.594-1.391-9.305-3.042-14.022-4.917
		c-1.602-0.637-2.617-2.23-2.516-3.953C103.611,146.28,113.868,0,255.984,0c64.402,0,108.267,25.018,130.359,74.359
		c20.717,46.122,13.89,96.091,13.593,98.197C399.655,174.532,397.96,175.989,395.975,175.989z M111.774,145.35
		c3.57,1.352,7.125,2.566,10.585,3.613c12.32,3.644,24.757,5.491,36.943,5.491c38.154,0,70.527-18.045,99.088-33.97
		c24.732-13.789,48.099-26.815,71.972-26.815c12.64,0,24.421,3.582,36.006,10.949c13.577,8.648,21.726,22.819,26.584,35.919
		c-0.812-17.854-4.085-41.044-13.905-62.902C358.353,31.427,316.949,7.999,255.984,7.999c-56.379,0-97.791,23.44-123.086,69.671
		C116.993,106.739,112.751,136.21,111.774,145.35z"/>
	<path style="fill:#116FFF;" d="M364.219,111.993c-0.68,0-1.367-0.172-2-0.535c-1.914-1.105-2.57-3.551-1.461-5.464l18.476-31.998
		c1.102-1.914,3.555-2.559,5.461-1.465c1.914,1.105,2.57,3.55,1.461,5.464l-18.476,31.998
		C366.946,111.274,365.594,111.993,364.219,111.993z"/>
	<path style="fill:#116FFF;" d="M275.983,399.975h-39.998c-1.516,0-2.898-0.859-3.577-2.211l-8-15.999
		c-0.984-1.977-0.188-4.383,1.789-5.367c1.984-0.977,4.375-0.188,5.367,1.789l6.89,13.788h35.061l6.89-13.788
		c0.992-1.977,3.398-2.758,5.367-1.789c1.977,0.984,2.773,3.391,1.789,5.367l-8,15.999
		C278.88,399.116,277.498,399.975,275.983,399.975z"/>
	<path style="fill:#116FFF;" d="M227.986,439.972c-0.492,0-1-0.094-1.484-0.281c-2.055-0.828-3.047-3.156-2.227-5.203l15.999-39.997
		c0.82-2.055,3.148-3.047,5.195-2.234c2.055,0.828,3.047,3.156,2.227,5.203l-15.999,39.997
		C231.072,439.019,229.572,439.972,227.986,439.972z"/>
	<path style="fill:#116FFF;" d="M283.982,439.972c-1.586,0-3.086-0.953-3.711-2.516l-15.998-39.997
		c-0.82-2.047,0.171-4.375,2.226-5.203c2.039-0.82,4.375,0.18,5.195,2.234l15.999,39.997c0.82,2.047-0.172,4.375-2.227,5.203
		C284.982,439.879,284.474,439.972,283.982,439.972z"/>
	<path style="fill:#116FFF;" d="M315.418,495.969c-0.82,0-1.641-0.25-2.344-0.766c-1.789-1.289-2.195-3.797-0.898-5.578
		l39.357-54.341l-7.352-22.045c-0.406-1.219-0.203-2.547,0.539-3.594l38.029-53.23l-37.6-37.607c-1.562-1.562-1.562-4.094,0-5.656
		s4.094-1.562,5.656,0l39.998,39.998c1.382,1.383,1.562,3.562,0.429,5.156l-38.817,54.34l7.358,22.061
		c0.406,1.219,0.195,2.562-0.554,3.609l-40.561,55.997C317.879,495.391,316.652,495.969,315.418,495.969z"/>
	<path style="fill:#116FFF;" d="M291.982,495.969c-0.398,0-0.812-0.062-1.211-0.188c-2.109-0.672-3.273-2.922-2.602-5.023
		l55.996-175.997c0.664-2.094,2.938-3.281,5.023-2.594c2.109,0.672,3.273,2.922,2.602,5.031l-55.996,175.981
		C295.255,494.883,293.677,495.969,291.982,495.969z"/>
	<path style="fill:#116FFF;" d="M315.98,383.976c-0.492,0-1-0.094-1.484-0.281L254.5,359.696c-2.055-0.827-3.047-3.155-2.227-5.202
		c0.82-2.055,3.156-3.062,5.195-2.234l59.996,23.998c2.055,0.828,3.047,3.156,2.227,5.203
		C319.066,383.023,317.566,383.976,315.98,383.976z"/>
	<path style="fill:#116FFF;" d="M196.55,495.969c-1.234,0-2.461-0.578-3.242-1.656l-40.56-55.997
		c-0.75-1.047-0.961-2.391-0.555-3.609l7.358-22.061l-38.817-54.34c-1.133-1.594-0.953-3.773,0.43-5.156l39.997-39.998
		c1.562-1.562,4.094-1.562,5.656,0s1.562,4.094,0,5.656l-37.6,37.607l38.029,53.23c0.742,1.047,0.945,2.375,0.539,3.594
		l-7.352,22.045l39.357,54.341c1.297,1.781,0.891,4.289-0.898,5.578C198.191,495.719,197.371,495.969,196.55,495.969z"/>
	<path style="fill:#116FFF;" d="M219.986,495.969c-1.695,0-3.272-1.086-3.812-2.789l-55.997-175.981
		c-0.672-2.109,0.492-4.359,2.602-5.031c2.094-0.688,4.359,0.5,5.023,2.594l55.996,175.997c0.672,2.102-0.492,4.352-2.602,5.023
		C220.798,495.907,220.384,495.969,219.986,495.969z"/>
	<path style="fill:#116FFF;" d="M195.988,383.976c-1.586,0-3.086-0.953-3.711-2.516c-0.82-2.047,0.172-4.375,2.227-5.203
		l59.996-23.998c2.047-0.828,4.375,0.18,5.195,2.234c0.82,2.047-0.172,4.375-2.227,5.202l-59.996,23.999
		C196.988,383.882,196.48,383.976,195.988,383.976z"/>
	<path style="fill:#116FFF;" d="M255.984,495.969c-2.211,0-4-1.789-4-4v-71.995c0-2.211,1.789-4,4-4c2.211,0,4,1.789,4,4v71.995
		C259.984,494.18,258.195,495.969,255.984,495.969z"/>
</g>
<g>
</g>
<g>
</g>
<g>
</g>
<g>
</g>
<g>
</g>
<g>
</g>
<g>
</g>
<g>
</g>
<g>
</g>
<g>
</g>
<g>
</g>
<g>
</g>
<g>
</g>
<g>
</g>
<g>
</g>
</svg>
